<svg xmlns="http://www.w3.org/2000/svg" width="27.705" height="40.001" viewBox="0 0 27.705 40.001">
  <g id="Group_30938" data-name="Group 30938" transform="translate(0 0)">
    <path id="Union_12" data-name="Union 12" d="M21,25.062V14.317h0V6.3A5.561,5.561,0,0,0,15.444.745H6.5A5.56,5.56,0,0,0,.948,6.3v8.018h0V25.062a.475.475,0,1,1-.948,0V6.364A6.364,6.364,0,0,1,6.364,0h9.215a6.364,6.364,0,0,1,6.364,6.364v18.7a.475.475,0,1,1-.948,0Z" transform="translate(2.913 8.843)" fill="#fff"/>
    <path id="Union_13" data-name="Union 13" d="M12.869.813H.406A.406.406,0,1,1,.406,0H12.869a.406.406,0,0,1,0,.813Z" transform="translate(7.18 20.562)" fill="#fff"/>
    <path id="Path_24649" data-name="Path 24649" d="M854.11-985.757" transform="translate(-835.517 1007.849)" fill="none" stroke="#707070" stroke-width="0.075"/>
    <path id="Subtraction_10" data-name="Subtraction 10" d="M.273,1.761A.287.287,0,0,1,.091,1.7.241.241,0,0,1,0,1.545H0V0H.545V1.545h0a.265.265,0,0,1-.273.211Zm0-.461a.132.132,0,1,0,0,.263.132.132,0,1,0,0-.263Z" transform="translate(18.83 20.968)" fill="#fff"/>
    <path id="Union_20" data-name="Union 20" d="M4.945,33.6A3.79,3.79,0,0,1,1.152,29.8v-.015A1.355,1.355,0,0,1,0,28.448V19.507a1.355,1.355,0,0,1,1.151-1.34V7.654A7.646,7.646,0,0,1,8.805,0H18.83a7.645,7.645,0,0,1,7.655,7.656v10.5A1.355,1.355,0,0,1,27.7,19.507v8.941A1.355,1.355,0,0,1,26.485,29.8v.21A3.587,3.587,0,0,1,22.9,33.6Zm.068-.745H22.758A3.052,3.052,0,0,0,25.806,29.8h-.068v-.745h.068V18.9h-.068v-.745h.068V7.654A6.916,6.916,0,0,0,18.9.745H8.873A6.916,6.916,0,0,0,1.964,7.654V29.8h0a3.052,3.052,0,0,0,3.048,3.048Zm21.472-3.808a.611.611,0,0,0,.475-.595v-8.94a.611.611,0,0,0-.475-.595ZM.745,19.507v8.941a.611.611,0,0,0,.406.575V18.932a.611.611,0,0,0-.406.575Z" transform="translate(0 6.405)" fill="#fff"/>
    <path id="Subtraction_14" data-name="Subtraction 14" d="M14.834,23.233H2.709A2.707,2.707,0,0,1,0,20.524V5.284A5.279,5.279,0,0,1,5.284,0H12.26a5.279,5.279,0,0,1,5.285,5.284v15.24a2.707,2.707,0,0,1-2.709,2.709ZM5.284.745A4.545,4.545,0,0,0,.745,5.284v15.24a1.966,1.966,0,0,0,1.964,1.964H14.834A1.966,1.966,0,0,0,16.8,20.523V5.284A4.545,4.545,0,0,0,12.26.745Z" transform="translate(5.08 14.262)" fill="#fff"/>
    <path id="Subtraction_19" data-name="Subtraction 19" d="M23.9,9.373h0a7.727,7.727,0,0,0-.585-.671l1.636-6.565a.678.678,0,0,0-.494-.818l-2.3-.576a.676.676,0,0,0-.818.494L19.98,6.7c-.222-.064-.449-.118-.676-.162l1.364-5.463A1.421,1.421,0,0,1,22.395.043l2.3.574a1.423,1.423,0,0,1,1.036,1.727L24.075,8.98a1.423,1.423,0,0,1-.165.395ZM1.825,9.308h0A1.426,1.426,0,0,1,1.7,8.979L.043,2.341A1.423,1.423,0,0,1,1.079.614l2.3-.571A1.421,1.421,0,0,1,5.106,1.078L6.462,6.525c-.227.041-.455.091-.678.155L4.425,1.236A.676.676,0,0,0,3.607.743l-2.3.574a.677.677,0,0,0-.494.818l1.616,6.5a7.727,7.727,0,0,0-.6.677Z" transform="translate(0.979 0.001)" fill="#fff"/>
  </g>
</svg>
